<svg xmlns="http://www.w3.org/2000/svg" viewBox="0 0 32 32" width="32" height="32" role="img" aria-label="Ahmed Elsherbini">
  <title>Ahmed Elsherbini</title>
  <path d="M 16.000 2.560 L 16.647 2.615 L 17.284 2.778 L 17.898 3.047 L 18.480 3.417 L 19.019 3.883 L 19.507 4.435 L 19.935 5.064 L 20.295 5.760 L 20.582 6.511 L 20.791 7.304 L 20.918 8.125 L 20.960 8.960 L 20.918 9.795 L 20.791 10.616 L 20.582 11.409 L 20.295 12.160 L 19.935 12.856 L 19.507 13.485 L 19.019 14.037 L 18.480 14.503 L 17.898 14.873 L 17.284 15.142 L 16.647 15.305 L 16.000 15.360 L 15.353 15.305 L 14.716 15.142 L 14.102 14.873 L 13.520 14.503 L 12.981 14.037 L 12.493 13.485 L 12.065 12.856 L 11.705 12.160 L 11.418 11.409 L 11.209 10.616 L 11.082 9.795 L 11.040 8.960 L 11.082 8.125 L 11.209 7.304 L 11.418 6.511 L 11.705 5.760 L 12.065 5.064 L 12.493 4.435 L 12.981 3.883 L 13.520 3.417 L 14.102 3.047 L 14.716 2.778 L 15.353 2.615 L 16.000 2.560 M 5.120 17.920 L 26.880 17.920 M 16.000 15.360 L 16.000 31.000" fill="none" stroke="currentColor" stroke-width="2.0" stroke-linecap="round" stroke-linejoin="round"/>
</svg>
